<?xml version="1.0" encoding="UTF-8"?>
<svg xmlns="http://www.w3.org/2000/svg" width="640" height="160" viewBox="0 0 640 160">
  <defs>
    <style>
      .ink{ fill:#7939be; }
      .text{ fill:#1a1a1a; font-family: system-ui, -apple-system, Segoe UI, Roboto, Inter, Poppins, Arial, sans-serif; }
      .title{ font-weight: 800; font-size: 44px; letter-spacing: .5px; }
      .subtitle{ font-weight: 500; font-size: 16px; fill:#555; }
    </style>
  </defs>

  <!-- mark (reused from logo.svg), scaled to fit -->
  <g transform="translate(16,16) scale(0.5)">
    <path fill="#efefef" d="M32,76 C32,60 44,48 60,48 h56 c10,0 20,4 28,10 c8,-6 18,-10 28,-10 h56 c16,0 28,12 28,28v104
      c-12,-8 -24,-12 -40,-12h-44c-12,0 -24,4 -28,10c-4,-6 -16,-10 -28,-10H72c-16,0 -28,4 -40,12V76z"/>
    <path fill="#1a1a1a" d="M60,60 h56 c10,0 20,5 28,12 v104 c-8,-7 -18,-12 -28,-12H72 c-20,0 -32,4 -40,10 V76 c0,-8 8,-16 16,-16z"/>
    <path fill="#1a1a1a" d="M196,60 h-56 c-10,0 -20,5 -28,12 v104 c8,-7 18,-12 28,-12 h44 c20,0 32,4 40,10 V76 c0,-8 -8,-16 -16,-16z"/>
    <rect x="124" y="60" width="8" height="120" fill="#ffffff"/>
    <g transform="translate(128,36)">
      <path class="ink" d="M0,-14 l3,6 6,3 -6,3 -3,6 -3,-6 -6,-3 6,-3z"/>
    </g>
  </g>

  <!-- wordmark -->
  <g transform="translate(200,64)">
    <text class="text title">Jornada Bíblica</text>
    <text class="text subtitle" y="32">controle simples da sua leitura</text>
  </g>
</svg>
